<?xml version="1.0" encoding="utf-8"?>
<!-- Generator: Adobe Illustrator 16.0.0, SVG Export Plug-In . SVG Version: 6.00 Build 0)  -->
<!DOCTYPE svg PUBLIC "-//W3C//DTD SVG 1.1//EN" "http://www.w3.org/Graphics/SVG/1.1/DTD/svg11.dtd">
<svg version="1.1" id="Layer_1" xmlns="http://www.w3.org/2000/svg" xmlns:xlink="http://www.w3.org/1999/xlink" x="0px" y="0px"
	 width="193.196px" height="40.817px" viewBox="0 0 193.196 40.817" enable-background="new 0 0 193.196 40.817"
	 xml:space="preserve">
<g>
	<g>
		<g>
			<polygon fill="#3F3B3C" stroke="#000000" stroke-width="0.7823" stroke-miterlimit="10" points="64.584,24.241 64.594,24.441 
				64.637,24.186 			"/>
			<path fill="#3F3B3C" stroke="#000000" stroke-width="0.7823" stroke-miterlimit="10" d="M64.546,25.414
				c0.015-0.036,0.039-0.019,0.055-0.056c-0.043,0.007-0.133-0.742-0.114-0.749C64.269,24.907,64.622,25.218,64.546,25.414z"/>
			<path fill="#3F3B3C" stroke="#000000" stroke-width="0.7823" stroke-miterlimit="10" d="M64.744,26.071
				c-0.131-0.064-0.11-0.515-0.206-0.438C64.521,25.941,64.697,26.027,64.744,26.071z"/>
			<path fill="none" stroke="#000000" stroke-width="0.7823" stroke-miterlimit="10" d="M84.972,26.052
				c-0.021,0.007-0.049,0.017-0.071,0.024"/>
			<path fill="#3F3B3C" stroke="#000000" stroke-width="0.7823" stroke-miterlimit="10" d="M54.542,24.621
				c-0.001,0-0.003,0-0.004,0.002c-0.009,0.007-0.02,0.016-0.028,0.021L54.542,24.621z"/>
			<path fill="#3F3B3C" stroke="#000000" stroke-width="0.7823" stroke-miterlimit="10" d="M92.486,20.788
				c-0.429-0.368-0.908-0.595-1.384-0.805c-0.958-0.404-1.939-0.697-2.912-0.993c-1.107-0.319-2.179-0.628-3.232-0.932l-0.779-0.233
				l-0.302-0.097l-0.111-0.044c-0.035-0.018-0.071-0.032-0.095-0.061c-0.03-0.036,0.023-0.071,0.051-0.088l0.285-0.154
				c0.953-0.512,1.884-1.18,2.641-2.004c0.095-0.104,0.191-0.205,0.281-0.317c0.087-0.101,0.181-0.219,0.295-0.386
				c0.213-0.31,0.428-0.739,0.215-1.059c-0.221-0.303-0.716-0.291-1.068-0.233c-0.324,0.048-0.576,0.117-0.858,0.197
				c0.001-0.025-0.038-0.031,0.075-0.065c-1.273,0.327-2.423,0.582-3.583,0.964l-0.004-0.024c-2.85,1.041-6.05,1.697-8.849,2.507
				c-0.433,0.084-0.876,0.16-1.326,0.2c-0.154,0.01-0.317,0.018-0.478,0.02c0.807-0.393,1.57-0.904,2.314-1.377
				c0.01,0.022-0.1,0.156,0.042,0.093c0.293-0.263,0.594-0.485,0.81-0.672c0.057-0.055,0.092-0.083,0.157-0.159
				c0.064-0.076,0.123-0.149,0.174-0.223c0.094-0.144,0.153-0.284,0.128-0.384c0.039-0.04,0.136-0.082,0.111,0.013
				c0.175-0.345,0.272-0.597,0.126-0.883c-0.237-0.243-0.533-0.18-0.896-0.095c-0.847,0.295-1.225,0.571-1.723,0.861
				c-0.476,0.3-0.938,0.621-1.376,0.981c-0.219,0.181-0.433,0.372-0.632,0.59c-0.103,0.118-0.188,0.208-0.292,0.377
				c-0.1,0.167-0.185,0.368-0.177,0.564c0.017,0.172,0.111,0.306,0.241,0.4c-0.294,0.133-0.589,0.265-0.883,0.396
				c-1.351,0.595-2.717,1.149-4.075,1.782c-2.87,1.121-5.735,2.721-8.68,3.735c-1.875,0.488-4.039,1.895-5.818,2.31
				c-3.6,0.986-6.881,2.481-10.289,3.976c-3.261,1.055-6.366,2.535-9.59,3.365c-1.429,0.679-3.198,0.87-4.842,1.459l0.078,0.038
				c-0.651,0.022-1.253,0.674-1.709,0.533l0.06-0.032c-0.357-0.032-0.64,0.541-0.882,0.443l-0.031,0.081
				c-0.38,0.138-0.068-0.061-0.374,0.005c-0.109,0.04-0.007,0.132-0.253,0.162c-0.129-0.256-0.931,0.336-1.043,0.031
				c0.211-0.056-0.362-0.031,0.094-0.221c-0.143,0.004-0.782,0.189-0.693,0.305c-0.021,0.152-0.248,0.339,0.176,0.345l0.055-0.123
				c0.16,0.066,0.115,0.024,0.183,0.087c0.525-0.123,0.635,0.001,1.023-0.049c-0.004-0.001-0.009-0.003-0.004-0.01
				c0.219-0.193,0.59-0.222,0.794-0.269l0.097,0.03c0.157,0.079,0.516-0.405,0.42-0.159c1.03-0.37,2.218-0.757,3.375-1.142
				c0.137-0.13,0.885-0.29,0.586-0.35c0.344,0.066,1.218-0.181,1.533-0.298c-0.007,0.02-0.015,0.042-0.065,0.052
				c0.69,0.001,0.664-0.447,1.332-0.386c0.026-0.216,1.07-0.307,1.322-0.637c0.085,0.017,0.123,0.044,0.107,0.086
				c1.048-0.341,2.206-0.717,3.092-1.005c0.693-0.428,1.842-0.578,2.404-1.034c0.551-0.146,1.446-0.366,2.158-0.729l-0.063,0.054
				c0.835-0.318,1.877-0.719,2.4-1.069c0.326,0.119,0.673-0.056,1.059-0.123c0.522-0.309,1.662-0.698,2.479-1.108
				c0.167,0.047,0.687-0.308,0.785-0.183c2.281-1.172,5.254-2.207,7.869-2.999c0.29-0.207,0.59-0.511,0.876-0.735
				c0.038,0,0.043,0.023-0.027,0.051c0.452-0.209,0.939-0.241,1.39-0.452c0.005,0.024,0.005,0.024-0.061,0.077
				c0.407-0.236,0.94-0.245,1.407-0.56l0.043,0.025l0.304-0.182c0.011,0.049,0.026,0.124-0.154,0.179
				c3.977-1.562,7.956-3.472,11.934-5.331l-0.125,0.112l0.614-0.38c0.023,0.004,0.044,0.013,0.067,0.016
				c0.297,0.043,0.522,0.02,0.774,0.003c0.49-0.044,0.973-0.122,1.455-0.215c0.96-0.197,1.918-0.413,2.814-0.739l0.003,0.052
				c2.336-0.759,4.881-1.31,7.313-2.041c1.021-0.261,1.689-0.522,2.725-0.729l0.037,0.058c0.212-0.071,0.431-0.118,0.64-0.144
				c0.191-0.005,0.481-0.042,0.575,0.173c0.045,0.221-0.126,0.412-0.248,0.579c-0.138,0.167-0.306,0.337-0.475,0.497
				c-0.682,0.652-1.449,1.183-2.174,1.771l0.063-0.141c-0.084,0.135-0.333,0.263-0.536,0.377c-0.198,0.11-0.399,0.233-0.24,0.277
				c0.009-0.007-0.35,0.117-0.354,0.127c-0.085,0.101-0.208,0.179-0.175,0.322c0.088,0.129,0.251,0.158,0.364,0.211
				c0.257,0.096,0.512,0.193,0.775,0.291c0.574,0.214,1.183,0.441,1.957,0.547l-0.112,0.026c0.408,0.066,0.881,0.156,1.163,0.284
				c-0.048-0.005-0.031,0.016-0.129,0.004c1.187,0.546,2.639,0.675,3.898,1.203l-0.18,0.036c0.322,0.066,0.756,0.246,1.159,0.514
				c0.404,0.256,0.775,0.639,0.802,1.044c0,0-0.045-0.046-0.049-0.045c0.005-0.001,0.017,0.093,0.024,0.194
				c-0.007,0.101-0.019,0.208-0.024,0.206l-0.093-0.024c-0.199,0.463-0.635,0.824-1.045,1.154c-0.414,0.328-0.902,0.568-1.404,0.782
				l0.02-0.102c-0.884,0.529-2.038,0.734-3.051,1.095l0.062-0.051c-2.641,0.716-5.082,1.392-7.755,1.918
				c0.04-0.017,0.05-0.044,0.092-0.062c-0.125,0.052-0.259,0.131-0.406,0.146c-0.042-0.012,0.034-0.046,0.079-0.062
				c-0.588-0.045-1.655,0.351-2.027,0.288c-0.158,0.037-0.222,0.105-0.125,0.14c-2.112,0.318-4.385,0.563-6.582,0.645
				c-0.105-0.021-0.124-0.06-0.094-0.109c-0.937,0.097-1.911,0.067-2.885-0.125c-0.486-0.101-0.973-0.243-1.442-0.47
				c-0.457-0.233-0.934-0.555-1.206-1.075c-0.098-0.052,0.06,0.248-0.108,0.07c0.163,0.368,0.46,0.59,0.733,0.745
				c0.28,0.147,0.548,0.256,0.807,0.417l-0.095,0.023c0.399,0.2,0.135-0.104,0.533,0.117c0.154,0.095-0.064,0.061,0.013,0.087
				c0.884,0.238,1.801,0.398,2.631,0.31c0.196,0.146,0.935,0.051,1.253,0.173c0.226-0.046,0.452-0.037,0.537-0.121
				c3.037,0.029,6.082-0.499,9.112-1.023c1.372-0.498,3.119-0.555,4.764-1.045c0.015,0.006,0.015,0.016,0.005,0.024
				c0.527-0.191,1.306-0.424,1.955-0.574l0.512-0.257c0.975-0.234,1.946-0.51,2.898-0.885c0.472-0.194,0.955-0.399,1.394-0.717
				c0.422-0.304,0.851-0.637,1.146-1.156c0.146-0.254,0.223-0.613,0.122-0.934C92.903,21.207,92.697,20.969,92.486,20.788z
				 M70.578,17.009c-0.15-0.155-0.056-0.386,0.049-0.544c0.115-0.18,0.274-0.36,0.439-0.521c0.333-0.328,0.709-0.621,1.095-0.897
				c0.388-0.277,0.793-0.532,1.211-0.763c0.437-0.23,0.779-0.419,1.223-0.505c0.1-0.015,0.244-0.017,0.286,0.094
				c0.028,0.106-0.023,0.21-0.066,0.305c-0.098,0.19-0.229,0.364-0.364,0.537c-0.273,0.354-0.63,0.689-1.023,0.939l-0.02-0.046
				c-0.84,0.589-1.748,1.052-2.667,1.479C70.685,17.065,70.624,17.045,70.578,17.009z"/>
			<path fill="#3F3B3C" stroke="#000000" stroke-width="0.7823" stroke-miterlimit="10" d="M79.15,26.979l0.012,0.001
				C79.194,26.965,79.178,26.97,79.15,26.979z"/>
			<path fill="#3F3B3C" stroke="#000000" stroke-width="0.7823" stroke-miterlimit="10" d="M22.859,35.9
				c0.016,0.016,0.096-0.012,0.138-0.021C22.946,35.887,22.902,35.893,22.859,35.9z"/>
			<polygon fill="#3F3B3C" stroke="#000000" stroke-width="0.7823" stroke-miterlimit="10" points="97.813,21.223 97.937,21.17 
				97.785,21.185 			"/>
			<path fill="#3F3B3C" stroke="#000000" stroke-width="0.7823" stroke-miterlimit="10" d="M98.025,21.24
				c0.139,0.168,0.366-0.186,0.452-0.077c-0.016-0.018-0.001-0.04-0.017-0.06L98.025,21.24z"/>
			<path fill="#3F3B3C" stroke="#000000" stroke-width="0.7823" stroke-miterlimit="10" d="M98.583,21.212
				c0.136,0.088,0.215-0.006,0.254-0.035C98.771,21.248,98.574,21.089,98.583,21.212z"/>
			<path fill="none" stroke="#000000" stroke-width="0.7823" stroke-miterlimit="10" d="M110.914,20.205
				c-0.013,0.002-0.028,0.009-0.042,0.015"/>
			<path fill="#3F3B3C" stroke="#000000" stroke-width="0.7823" stroke-miterlimit="10" d="M120.382,17.5l0.038-0.071
				c-0.212,0.12-0.468,0.247-0.652,0.259c0.024-0.017,0.007-0.028,0.057-0.06c-0.785,0.019-1.51,0.505-2.286,0.699l0.061-0.121
				c-0.341,0.215-1.049,0.303-1.527,0.471l0.018-0.054l-0.231,0.127l-0.029-0.092c-0.639,0.154-1.222,0.382-1.848,0.529l0.014-0.092
				c-0.549,0.283-1.24,0.279-1.847,0.464l0.035-0.039c-1.576,0.292-3.007,0.692-4.574,0.995c0.023-0.013,0.027-0.04,0.051-0.053
				c-0.071,0.042-0.147,0.109-0.234,0.116c-0.024-0.016,0.018-0.044,0.045-0.057c-0.352-0.084-0.967,0.228-1.19,0.145
				c-0.091,0.027-0.125,0.091-0.067,0.13c-0.617,0.1-1.257,0.197-1.904,0.276c-0.645,0.094-1.295,0.179-1.934,0.259
				c-0.062-0.017-0.075-0.055-0.06-0.104c-1.082,0.298-2.257,0.182-3.386,0.016c-0.054,0.058,0.107,0.075-0.016,0.128
				c0.362,0.11,0.691-0.088,1.015,0.053l-0.048,0.055c0.242,0.059,0.059-0.143,0.306-0.048c0.097,0.049-0.026,0.075,0.019,0.08
				c0.511-0.022,1.048,0.038,1.524-0.111c0.121,0.122,0.542-0.023,0.735,0.089c0.128-0.058,0.261-0.051,0.307-0.139
				c1.773-0.043,3.552-0.378,5.33-0.653c0.796-0.365,1.836-0.26,2.807-0.517c0.01,0.008,0.01,0.017,0.004,0.025
				c0.311-0.12,0.769-0.246,1.157-0.292l0.302-0.168c2.337-0.267,4.633-0.97,6.937-1.591c0.654-0.176,1.281-0.391,1.901-0.594
				c0.046-0.018,0.089-0.035,0.134-0.053c-0.207-0.055-0.413-0.113-0.616-0.177C120.614,17.376,120.5,17.431,120.382,17.5z"/>
			<path fill="#3F3B3C" stroke="#000000" stroke-width="0.7823" stroke-miterlimit="10" d="M118.913,15.503
				c-0.534,0.009-1.044-0.014-1.563,0.041l0.002-0.023c-1.764,0.26-3.68,0.092-5.382,0.325c-2.074-0.014-4.424-0.006-6.604-0.281
				l0.014-0.049c-0.869-0.09-1.727-0.32-2.461-0.744c-0.351-0.216-0.709-0.497-0.832-0.837c-0.025-0.072-0.026-0.144-0.021-0.216
				c0.567-0.028,1.161-0.032,1.63-0.074c0.448-0.218,1.141-0.052,1.512-0.34c0.338,0.004,0.89,0.027,1.336-0.141l-0.04,0.035
				c0.52-0.094,1.169-0.227,1.494-0.442c0.197,0.192,0.413,0.098,0.653,0.122c0.324-0.179,1.031-0.313,1.528-0.564
				c0.111,0.073,0.418-0.177,0.494-0.047c0.184-0.104,0.372-0.209,0.564-0.317c0.283-0.161,0.566-0.325,0.746-0.51
				c0.193-0.184,0.333-0.36,0.35-0.594c-0.015-0.284-0.234-0.392-0.452-0.484c-0.232-0.092-0.554-0.131-0.889-0.145l-0.737-0.02
				c-0.432,0-0.857,0-1.269,0c-0.193,0.114-0.396,0.321-0.581,0.457c-0.021-0.01-0.023-0.034,0.021-0.041
				c-0.283,0.076-0.582-0.02-0.863,0.065c-0.004-0.025-0.004-0.025,0.039-0.057c-0.256,0.119-0.585-0.002-0.877,0.187l-0.027-0.034
				l-0.188,0.103c-0.007-0.05-0.016-0.125,0.095-0.135c-1.237,0.283-2.476,0.691-3.639,1.361c-0.289,0.175-0.574,0.364-0.834,0.618
				c-0.17,0.168-0.352,0.39-0.443,0.663c-0.227-0.001-0.451-0.008-0.677-0.025c-0.913,0.231-1.944-0.127-2.961-0.08l0.037,0.061
				c-0.363-0.187-0.824,0.248-1.045-0.037l0.039-0.012c-0.187-0.146-0.465,0.311-0.577,0.137l-0.035,0.067
				c-0.238,0.007-0.023-0.081-0.204-0.117c-0.068,0.003-0.034,0.125-0.175,0.074c-0.009-0.284-0.583,0.015-0.568-0.308
				c0.126,0.014-0.184-0.145,0.104-0.179c-0.077-0.041-0.461-0.069-0.444,0.068c-0.052,0.137-0.222,0.242,0.004,0.38l0.061-0.098
				c0.068,0.113,0.055,0.06,0.075,0.14c0.314,0.05,0.342,0.203,0.564,0.284c-0.001-0.003-0.003-0.006,0-0.011
				c0.167-0.11,0.375-0.023,0.499,0.001l0.045,0.061c0.069,0.126,0.375-0.215,0.267-0.013c0.647-0.007,1.384-0.016,2.104-0.023
				c0.101-0.079,0.55-0.002,0.39-0.152c0.183,0.169,0.72,0.197,0.918,0.18c-0.007,0.017-0.016,0.035-0.046,0.031
				c0.396,0.209,0.444-0.229,0.82,0.027c0.038-0.169,0.505-0.031,0.751-0.147c-0.002,0.031-0.013,0.058-0.011,0.091
				c0.041,0.472,0.356,0.764,0.623,0.976c0.278,0.215,0.586,0.378,0.895,0.511l-0.11,0.004c0,0,0.13,0.036,0.259,0.06
				c0.128,0.024,0.257,0.049,0.257,0.049c-0.011,0.023-0.038,0.028-0.064,0.03c0.603,0.296,1.297,0.296,1.907,0.414
				c-0.007,0.023-0.108,0.055-0.026,0.096c0.478-0.064,0.72,0.279,0.982,0.024c0.02,0.015,0.027,0.08-0.021,0.098
				c1.282,0.054,2.592,0.112,3.882,0.167c1.072-0.241,2.266-0.021,3.372-0.248l-0.004,0.051c1.43-0.209,2.956-0.074,4.44-0.152
				c0.295,0.001,0.544-0.014,0.792-0.032c0.007-0.047,0.015-0.094,0.018-0.142C118.846,15.625,118.88,15.564,118.913,15.503z
				 M104.926,11.734c0.858-0.355,1.755-0.644,2.661-0.753c1.136,0.016,2.534-0.726,3.641-0.433c0.235,0.067,0.438,0.104,0.541,0.276
				c0.041,0.112-0.085,0.219-0.172,0.284c-0.091,0.069-0.185,0.126-0.276,0.168c-0.089,0.049-0.177,0.084-0.262,0.121l-0.306,0.124
				l-0.742,0.268c-1.004,0.342-2.028,0.668-3.083,0.967c-1.595,0.16-3.168,0.542-4.738,0.614c0.086-0.137,0.201-0.269,0.334-0.386
				C103.232,12.492,104.074,12.098,104.926,11.734z"/>
			<path fill="#3F3B3C" stroke="#000000" stroke-width="0.7823" stroke-miterlimit="10" d="M119.663,15.783l0.017,0.062
				c0.52-0.126,1.071-0.075,1.619-0.003l0.736,0.103c0.188,0.044,0.438,0.004,0.726,0.165c0,0-0.205-0.013-0.207-0.007
				c0.21,0.004,0.138,0.179,0.044,0.244c-0.084,0.076-0.129,0.127,0.044,0.14c0,0-0.062,0.021-0.124,0.041
				c-0.062,0.017-0.125,0.033-0.125,0.033c-0.063,0.121-0.233,0.249-0.391,0.35c-0.16,0.073-0.329,0.124-0.505,0.171
				c-0.132,0.041-0.268,0.077-0.406,0.12c0.199,0.058,0.396,0.119,0.599,0.169c0.145-0.058,0.29-0.115,0.434-0.172
				c0.189-0.115,0.4-0.262,0.6-0.395c0.189-0.137,0.453-0.263,0.506-0.429c0.086-0.139,0.098-0.394-0.03-0.54
				c-0.109-0.138-0.264-0.242-0.491-0.314c-0.219-0.068-0.513-0.108-0.745-0.124c-0.25-0.019-0.38-0.019-0.548-0.02
				c-0.648,0-1.292,0.057-1.948,0.148c0.003-0.024-0.019-0.038,0.049-0.048c-0.081,0.006-0.159,0.007-0.239,0.011
				c-0.078,0.104-0.142,0.212-0.173,0.322C119.277,15.798,119.458,15.787,119.663,15.783z"/>
			<path fill="#3F3B3C" stroke="#000000" stroke-width="0.7823" stroke-miterlimit="10" d="M108.982,10.197
				C108.983,10.197,108.983,10.197,108.982,10.197c0.008-0.004,0.016-0.012,0.021-0.015L108.982,10.197z"/>
			
				<line fill="none" stroke="#000000" stroke-width="0.7823" stroke-miterlimit="10" x1="107.47" y1="20.521" x2="107.477" y2="20.523"/>
			<path fill="#3F3B3C" stroke="#000000" stroke-width="0.7823" stroke-miterlimit="10" d="M95.883,13.739
				c0.004,0.02,0.055,0.02,0.082,0.026C95.933,13.757,95.908,13.749,95.883,13.739z"/>
			<polygon fill="#3F3B3C" stroke="#000000" stroke-width="0.7823" stroke-miterlimit="10" points="171.107,19.004 170.942,19.034 
				171.148,19.049 			"/>
			<path fill="#3F3B3C" stroke="#000000" stroke-width="0.7823" stroke-miterlimit="10" d="M170.202,18.923
				c0.021,0.023,0.001,0.042,0.021,0.065l0.597-0.046C170.629,18.74,170.324,19.057,170.202,18.923z"/>
			<path fill="#3F3B3C" stroke="#000000" stroke-width="0.7823" stroke-miterlimit="10" d="M169.7,18.83
				c0.094-0.058,0.364,0.148,0.356,0.021C169.872,18.732,169.756,18.808,169.7,18.83z"/>
			<path fill="none" stroke="#000000" stroke-width="0.7823" stroke-miterlimit="10" d="M151.822,17.99
				c0.019-0.003,0.045-0.007,0.063-0.01"/>
			<path fill="#3F3B3C" stroke="#000000" stroke-width="0.7823" stroke-miterlimit="10" d="M146.553,6.989
				C146.553,6.989,146.554,6.989,146.553,6.989c0.007-0.007,0.016-0.018,0.02-0.025L146.553,6.989z"/>
			<path fill="#3F3B3C" stroke="#000000" stroke-width="0.7823" stroke-miterlimit="10" d="M168.153,18.302l0.075-0.042
				c-0.342-0.117-0.101,0.13-0.446-0.028c-0.133-0.082,0.05-0.065-0.015-0.085c-0.75-0.088-1.523-0.278-2.243-0.208
				c-0.161-0.143-0.803-0.075-1.068-0.223c-0.198,0.033-0.392,0.003-0.471,0.082c-2.616-0.238-5.286-0.066-7.947,0.01
				c-1.238,0.286-2.74,0.06-4.217,0.207c-0.01-0.008-0.009-0.018,0.001-0.025c-0.479,0.083-1.179,0.145-1.755,0.141l-0.481,0.128
				c-3.468-0.056-6.993,0.229-10.506,0.162c-3.993-0.046-7.471-0.29-11.36-0.255c0.007-0.024-0.023-0.041,0.077-0.043
				c-1.121-0.038-2.127-0.225-3.175-0.307l0.006-0.024c-0.971-0.05-1.969-0.185-2.938-0.421c-0.202-0.05-0.399-0.111-0.6-0.169
				c-0.128-0.038-0.259-0.068-0.386-0.11c-0.606-0.211-1.285-0.477-1.569-0.936c-0.065-0.108-0.066-0.225-0.033-0.345
				c0.031-0.11,0.095-0.219,0.173-0.322c0.015-0.02,0.025-0.041,0.041-0.06c0.088-0.121,0.199-0.228,0.319-0.329
				c0.11-0.109,0.237-0.202,0.363-0.293c1.313-0.773,2.889-1.284,4.471-1.77c1.59-0.478,3.223-0.895,4.809-1.273l0.003,0.049
				c2.527-0.667,5.056-0.828,7.606-1.371c2.657-0.396,5.345-1.356,7.935-2.093c0.814-0.183,1.747-0.571,2.447-1.235
				c0.169-0.164,0.314-0.369,0.329-0.579c0.024-0.224-0.153-0.384-0.319-0.501c-0.358-0.237-0.77-0.374-1.129-0.533
				c-1.53-0.567-3.158-0.669-4.744-0.666c-1.595,0.013-3.181,0.189-4.778,0.404c-2.982,0.063-5.859,0.832-8.659,1.442
				c-1.225,0.583-2.78,0.788-4.06,1.678l0.081,0.021c-0.578,0.147-0.834,0.91-1.256,0.935l0.035-0.048
				c-0.323,0.096-0.246,0.702-0.479,0.715l0.024,0.081c-0.198,0.278-0.089-0.021-0.272,0.174c-0.051,0.088,0.078,0.104-0.07,0.251
				c-0.128-0.059-0.235,0.131-0.315,0.327c-0.078,0.197-0.123,0.393-0.278,0.376c0.049-0.216-0.198,0.319-0.145-0.191
				c-0.034,0.065-0.105,0.268-0.078,0.492c0.017,0.226,0.176,0.423,0.209,0.343c0.158-0.016,0.348,0.089,0.312-0.23
				c-0.003,0.007-0.116-0.02-0.115-0.025c0.086-0.115,0.041-0.083,0.118-0.122c0.051-0.379,0.255-0.39,0.429-0.607
				c-0.005,0-0.008,0.002-0.011-0.004c-0.011-0.237,0.217-0.444,0.341-0.556l0.087-0.014c0.147,0.003,0.155-0.526,0.216-0.288
				c0.576-0.68,1.453-1.289,2.359-1.773c0.085-0.145,0.709-0.349,0.438-0.387c0.308,0.034,1.026-0.228,1.291-0.337
				c-0.004,0.019-0.009,0.041-0.052,0.051c0.593,0.012,0.54-0.435,1.125-0.34c0.016-0.218,0.916-0.226,1.138-0.523
				c0.074,0.025,0.105,0.057,0.091,0.096c0.905-0.25,1.939-0.391,2.722-0.525c0.643-0.29,1.637-0.188,2.19-0.485
				c0.49-0.016,1.282,0.007,1.952-0.141l-0.063,0.034c0.764-0.075,1.723-0.139,2.245-0.31c0.236,0.217,0.566,0.161,0.901,0.22
				c0.509-0.12,1.545-0.104,2.327-0.184c0.118,0.107,0.646-0.029,0.682,0.123c1.093-0.107,2.331-0.077,3.529,0.177
				c0.574,0.128,1.222,0.332,1.549,0.638c0.13,0.149,0.08,0.175-0.011,0.277c-0.127,0.135-0.36,0.279-0.598,0.388
				c-0.173,0.215-0.395,0.515-0.62,0.731c-0.033,0-0.04-0.023,0.018-0.049c-0.374,0.203-0.803,0.205-1.188,0.379
				c-0.005-0.024-0.005-0.024,0.051-0.071c-0.356,0.193-0.813,0.158-1.231,0.4l-0.037-0.031l-0.272,0.14
				c-0.007-0.049-0.017-0.125,0.141-0.156c-3.52,1.007-7.243,1.852-10.997,2.507l0.129-0.072l-0.71,0.22
				c-0.001-0.026,0.031-0.043,0.064-0.061c-0.939,0.098-1.87,0.431-2.77,0.607c0-0.025,0.125-0.101-0.007-0.101
				c-0.634,0.274-1.104,0.07-1.372,0.419c-0.034-0.004-0.07-0.062-0.007-0.1c-1.821,0.525-3.698,1.016-5.518,1.625
				c-0.705,0.402-1.485,0.716-2.232,1.152c-0.369,0.223-0.739,0.473-1.019,0.841c-0.023,0.045-0.043,0.09-0.065,0.134
				c-0.032,0.062-0.066,0.124-0.093,0.187c-0.003,0.047-0.012,0.095-0.019,0.142c-0.012,0.077-0.019,0.155,0.006,0.228
				c0.053,0.248,0.218,0.426,0.392,0.547l-0.042,0.032c0.458,0.338,0.979,0.507,1.5,0.672c0.022,0.007,0.047,0.013,0.07,0.021
				c0.203,0.064,0.408,0.122,0.615,0.177c0.302,0.08,0.604,0.154,0.911,0.222c1.081,0.241,2.184,0.438,3.283,0.536
				c0.909,0.124,1.532,0.114,2.449,0.18l0.019,0.065c1.559-0.117,3.241,0.409,4.868,0.196l-0.114,0.083
				c0.254-0.125,0.976,0.082,0.887-0.15l0.283,0.08c1.102-0.282,1.995,0.168,3.341-0.009l-0.089,0.053
				c0.358-0.038,0.775-0.08,1.04-0.03c-0.041,0.008-0.021,0.024-0.107,0.039c1.121,0.206,2.367-0.029,3.548-0.057l-0.133,0.105
				c0.568-0.134,1.618-0.041,2.368-0.122l-0.045,0.05l0.377-0.081l0.014,0.095c0.978-0.029,1.894-0.137,2.845-0.192l-0.045,0.089
				c0.879-0.194,1.886-0.078,2.819-0.189l-0.062,0.034c2.38-0.075,4.564-0.327,6.925-0.467c-0.036,0.011-0.049,0.037-0.086,0.049
				c0.113-0.034,0.237-0.094,0.366-0.092c0.033,0.019-0.035,0.043-0.076,0.052c0.503,0.129,1.464-0.12,1.778-0.017
				c0.14-0.017,0.2-0.079,0.121-0.122c0.925-0.043,1.884-0.032,2.849-0.058c0.964,0.027,1.936-0.011,2.885,0.038
				c0.09,0.027,0.103,0.068,0.074,0.115c1.638-0.13,3.332,0.272,4.936,0.731c0.078-0.039-0.146-0.117,0.029-0.126
				C169.098,18.39,168.604,18.527,168.153,18.302z"/>
			<path fill="#3F3B3C" stroke="#000000" stroke-width="0.7823" stroke-miterlimit="10" d="M156.93,18.048l-0.011-0.002
				C156.891,18.054,156.905,18.053,156.93,18.048z"/>
			<path fill="#3F3B3C" stroke="#000000" stroke-width="0.7823" stroke-miterlimit="10" d="M122.174,10.767
				c-0.026,0.031-0.049,0.055-0.069,0.081C122.123,10.851,122.154,10.795,122.174,10.767z"/>
		</g>
	</g>
</g>
</svg>
