<svg id="b1e86a57-bce4-434d-81d7-60d526129fea" data-name="Layer 1" xmlns="http://www.w3.org/2000/svg" viewBox="0 0 158.76 33.37"><path d="M93.14,18h0a5.74,5.74,0,0,0-1.53-.9,28.57,28.57,0,0,0-3-1l-3.55-1-.86-.25A10.75,10.75,0,0,0,87,12.71l0-.05.26-.29c.09-.11.2-.25.33-.43.39-.58.47-1.06.22-1.43a1.33,1.33,0,0,0-1.39-.36,6.89,6.89,0,0,0-.84.19v-.05l-1,.25c-.87.21-1.69.42-2.52.68v0l-.32.11a62.54,62.54,0,0,1-6.07,1.77l-1.81.47.94-1.83A1.24,1.24,0,0,0,75,10.52L75,10.45a1.17,1.17,0,0,0-1.23-.17,7.61,7.61,0,0,0-1.59.77l-.28.17a13.16,13.16,0,0,0-1.48,1,6.07,6.07,0,0,0-.73.7,1.89,1.89,0,0,0-.3.39,1.36,1.36,0,0,0-.23.76.75.75,0,0,0,.09.29l-.6.27-1.56.68c-.9.38-1.83.78-2.72,1.19-1.33.52-2.68,1.15-4,1.75a54.57,54.57,0,0,1-5.14,2.18,19.54,19.54,0,0,0-3.09,1.24,16.21,16.21,0,0,1-3,1.19,73.27,73.27,0,0,0-10,3.83l-.83.37c-1.42.46-2.83,1-4.19,1.52a57.11,57.11,0,0,1-5.95,2,14.61,14.61,0,0,1-2.78.87c-.76.19-1.54.38-2.3.65l-.61.22h0l-.29.15a4,4,0,0,1-.43.2l-.22,0a1,1,0,0,0-.72.33l-.09,0h0c-.05,0-.1.09-.08.1l-.25-.1-.07.18h-.15l.15-.06-1.48,0c-.06,0-.83.13-1,.44a.25.25,0,0,0,0,.17h0a.45.45,0,0,0,0,.43.58.58,0,0,0,.49.2h.18l.14,0a1.79,1.79,0,0,1,.58,0h.45l.17,0h0l1.49-.19-.48-.1a.57.57,0,0,0,.13-.08l.14-.05c.87-.31,1.85-.64,2.83-1l.72-.24.1-.05A1.41,1.41,0,0,1,25,32.6a2.46,2.46,0,0,0,.36-.17,6,6,0,0,0,1.33-.29v0h0a1.4,1.4,0,0,0,.84-.26.7.7,0,0,1,.54-.15l.26,0,0-.19a3.85,3.85,0,0,1,.37-.13,3.09,3.09,0,0,0,.43-.14h0L33,30.07a6.12,6.12,0,0,1,1.15-.47,4.71,4.71,0,0,0,1.36-.6l.09,0,.69-.19-.09.07.74-.28.41-.16.34-.13a17.69,17.69,0,0,0,2.48-1.08,1.75,1.75,0,0,0,.79-.08l.33-.08.09,0a11.25,11.25,0,0,1,1.24-.56c.44-.18.89-.37,1.29-.57a1.2,1.2,0,0,0,.44-.13l.19-.07.06.08.2-.1a51.23,51.23,0,0,1,8.25-3.14l0,0h0l.74-.53h-.09l.23-.2h0a3.61,3.61,0,0,1,.68-.22,5.23,5.23,0,0,0,.71-.22l0,0a2.81,2.81,0,0,1,.58-.21,3.87,3.87,0,0,0,.77-.29l0,0,.21-.12,0,.06.11,0C60.78,19.37,64.46,17.65,68,16l1.51-.7,0,0,.56-.34a3.21,3.21,0,0,0,.76,0H71c.47,0,1-.12,1.56-.23a25.5,25.5,0,0,0,2.65-.67v.05l.34-.12c1.35-.44,2.81-.82,4.22-1.19,1.15-.3,2.33-.61,3.46-1l1.15-.32c.49-.15,1-.29,1.53-.41l0,.09.2-.07a2.56,2.56,0,0,1,.67-.14c.07,0,.24,0,.26,0s-.08.21-.17.33l0,0a5.61,5.61,0,0,1-.48.5,19.47,19.47,0,0,1-1.5,1.25l-.71.55,0,0a1.72,1.72,0,0,1-.4.27l-.07,0a1,1,0,0,0-.42.33.85.85,0,0,0-.28.16h0l0,.06a.54.54,0,0,0-.19.52l0,.09a.77.77,0,0,0,.42.29l.91.35c.28.1.59.22.92.32l-.31.07,1.38.22c.13,0,.42.07.7.14l.32.15a12,12,0,0,0,2.16.67c.34.09.68.17,1,.27l-.53.11,1.33.27a3.67,3.67,0,0,1,1.13.5,1.84,1.84,0,0,1,.65.66l-.29.15.29.16-.06.14a3.28,3.28,0,0,1-1,1.11,4.81,4.81,0,0,1-.94.57l0-.19-.53.32a9.25,9.25,0,0,1-2.07.78l-.41.13-1.12.3c-2.55.69-5,1.35-7.57,1.86v0H79.1v0l-.24.07h0a5.49,5.49,0,0,0-1.21.17,3.77,3.77,0,0,1-.82.13h0l0,0a.59.59,0,0,0-.33.17,60.21,60.21,0,0,1-6.35.63l.09-.16-.55.06a9.68,9.68,0,0,1-3-.13c-.22,0-.41-.1-.6-.15l-2.11-1.63a.74.74,0,0,1,0-.14.63.63,0,0,0-.07-.22l.22-.53-.24,0a.77.77,0,0,0,0-.15l.07-.37.42-.57-.35.14.14-.83-.76.81v.29s0,0,0,0h0a.77.77,0,0,0,0,.81,1.21,1.21,0,0,1,.05.14v0h0l0,.07,0,.07-.07.05v0l-.47-.5.63,1.42,0,.44,0-.3a2.12,2.12,0,0,0,.83.81l.21.1-.11,0,.66.33a.58.58,0,0,0,.4.1v.08l.23.06a8,8,0,0,0,2.78.34,2.69,2.69,0,0,0,.71.1,1.8,1.8,0,0,1,.57.06l.08,0,.08,0,.21,0a1.51,1.51,0,0,0,.38-.09h.17a54.87,54.87,0,0,0,9.44-1.1,15.14,15.14,0,0,1,2.5-.56c.41-.07.84-.14,1.26-.23l-.42.32,1.67-.6h0c.58-.2,1.39-.44,2.08-.61l.48-.25a23.2,23.2,0,0,0,3.1-.94,7.32,7.32,0,0,0,1.52-.79,4,4,0,0,0,1.29-1.31,1.59,1.59,0,0,0,.15-1.2A1.91,1.91,0,0,0,93.14,18Zm-23-4.2a2.53,2.53,0,0,1,.42-.5,9.2,9.2,0,0,1,1.12-.92,13.21,13.21,0,0,1,1.3-.82,4.54,4.54,0,0,1,1.1-.46h0a4,4,0,0,1-.35.53,4.71,4.71,0,0,1-.74.74l0-.05-.28.19A17.16,17.16,0,0,1,70.08,14,.39.39,0,0,1,70.17,13.82Zm3.65-.25c-.44.11-.86.23-1.28.35-.16,0-.35.07-.55.1.32-.19.63-.39.94-.59l.12-.07a.38.38,0,0,0,.24,0l.07,0c.18-.16.35-.3.52-.43l.17-.14ZM25,32.31l.14-.06,0,.16A.32.32,0,0,1,25,32.31ZM83.67,14.24l-.09.07,0-.11ZM65.18,24.89a3.27,3.27,0,0,1-.63-.4L66,25.2A4.17,4.17,0,0,1,65.18,24.89Z" transform="translate(-17.74 -1.14)" style="fill:#0f1ed6"/><path d="M174.92,16.6l1.58.12-.6-.67-.22,0a.59.59,0,0,0-.63-.11l-.73-.31a2.57,2.57,0,0,0-.86-.17h-.05l-.56-.19a.73.73,0,0,0-.3-.05V15.2l-.24,0-.66-.09a7.25,7.25,0,0,0-1.67-.14,1.8,1.8,0,0,0-.57-.11,1.56,1.56,0,0,1-.49-.08l-.09-.05-.09,0h-.18a1.2,1.2,0,0,0-.33.06,55.66,55.66,0,0,0-6.71,0l-1.66.06a11,11,0,0,1-2.42.15h-1l.27-.18-1.25.21a9.72,9.72,0,0,1-1.8.15h0l-.5.13c-1.8,0-3.63,0-5.4.09s-3.76.12-5.64.08-3.47-.07-5.11-.13c-2.28-.08-4.43-.15-6.77-.14v0c-.69,0-1.36-.1-2-.18l-1-.12v0l-.33,0a18.2,18.2,0,0,1-2.25-.28l.21-.14.18-.12.15-.1a1,1,0,0,0,.47-.46h0l.14,0,.31,0-.14-.08.15-.05-.28,0-.1-.05a.75.75,0,0,0-.15-.6,1.3,1.3,0,0,0-.66-.43,4.5,4.5,0,0,0-.84-.14c-.26,0-.4,0-.6,0a15.24,15.24,0,0,0-1.59.1l.24-.19a21.37,21.37,0,0,1,4.65-1.84c1.36-.41,2.87-.81,4.74-1.26v.06L131.8,9a41.25,41.25,0,0,1,4.55-.85c1.13-.17,2.29-.34,3.43-.58A46,46,0,0,0,146.05,6c.71-.22,1.42-.44,2.11-.63A5.92,5.92,0,0,0,150.87,4a1.25,1.25,0,0,0,.43-.78.88.88,0,0,0-.46-.78,5.35,5.35,0,0,0-.93-.46l-.31-.13a14.59,14.59,0,0,0-5.1-.72,39.5,39.5,0,0,0-5,.42,39.63,39.63,0,0,0-7.75,1.21l-1.48.34a12.12,12.12,0,0,1-1.58.58,10,10,0,0,0-2.73,1.21l-.49.34h0a3.32,3.32,0,0,0-.26.28,2.44,2.44,0,0,1-.22.23l-.2.06a.73.73,0,0,0-.45.52l-.07.1h0l0,.12H124l.06.22a.66.66,0,0,0-.2.16.37.37,0,0,0-.05.16.51.51,0,0,0-.23.21l.08-.81L123,7.78a1.19,1.19,0,0,0-.11.67c0,.23.16.59.42.63h.25v0a.39.39,0,0,0,.3-.12.51.51,0,0,0,.11-.44V8.43a.34.34,0,0,1,.17-.29c0-.05.12-.11.18-.18a.08.08,0,0,0,0,0h0l0,0,0-.07h0l.4-.5h0A.57.57,0,0,0,125,7.1l.06-.08a8.7,8.7,0,0,1,2.41-1.8l.05,0,0-.06a1.28,1.28,0,0,1,.21-.13,1.41,1.41,0,0,0,.27-.18,4.59,4.59,0,0,0,1-.29h0a1.06,1.06,0,0,0,.75-.25.42.42,0,0,1,.4-.11l.29.05,0-.21.29-.08c.1,0,.2,0,.3-.09v0l.51-.14a19.1,19.1,0,0,1,2.3-.46l.54-.09.07,0a4.11,4.11,0,0,1,1.08-.23,4,4,0,0,0,1.18-.26h.66l-.06,0,.6-.06.4,0,.76-.07a12.4,12.4,0,0,0,1.87-.26,1.55,1.55,0,0,0,.68.17,2.48,2.48,0,0,1,.27,0h.12a8.06,8.06,0,0,1,1.32-.12c.35,0,.69,0,1-.06a1.33,1.33,0,0,0,.41,0H145l0,.1.24,0a12.07,12.07,0,0,1,3.63.18,3.62,3.62,0,0,1,1.44.55,2.06,2.06,0,0,1-.5.3l-.07.07h0l0,0h0v0l-.12.12c-.12.16-.27.34-.41.5h0a2.3,2.3,0,0,1-.61.2,4.33,4.33,0,0,0-.56.16l0,0a1.8,1.8,0,0,1-.51.16,3.5,3.5,0,0,0-.62.18l0,0-.21.11,0-.06-.09,0c-3.16.9-6.47,1.68-9.87,2.32l1-.54-2.93.91-.18,0a11.45,11.45,0,0,0-1.85.38l-.83.2,0-.05h-.05l.43-.26-1.64.48a1,1,0,0,0-.25.07l-.2.06-1.57.44c-1.4.4-2.85.8-4.3,1.29-.35.2-.71.38-1.09.56s-.84.41-1.27.66a3.94,3.94,0,0,0-1.17,1h-.31c-.28,0-.58,0-.87,0v-.05l-.34.05a23.32,23.32,0,0,1-2.91.18,23.82,23.82,0,0,0-2.72.16H113a58.11,58.11,0,0,1-6.12-.25l0-.06-.32,0a6.29,6.29,0,0,1-2.48-.75,2.09,2.09,0,0,1-.7-.61h.33c.38,0,.75,0,1.07-.06l.1,0a1.71,1.71,0,0,1,.65-.12,2.09,2.09,0,0,0,.9-.21h.45l-.07.05.51-.09.23,0,.21,0a6.08,6.08,0,0,0,1.51-.41,1,1,0,0,0,.5.08h.26l.08,0a4.65,4.65,0,0,1,.63-.23c.28-.09.6-.19.88-.31a.82.82,0,0,0,.31-.07h0l.06.11.83-.47a3.75,3.75,0,0,0,.84-.57,1.26,1.26,0,0,0,.46-.84A.87.87,0,0,0,113.5,7a3.18,3.18,0,0,0-1-.18l-2.12,0h-.08l.73-.56-2.23,1a1,1,0,0,1-.28,0,1.45,1.45,0,0,0-.44.06l0,0-.19.1v0l-.1,0a13.84,13.84,0,0,0-3.85,1.45,5,5,0,0,0-.93.69,2.23,2.23,0,0,0-.45.61l-.51,0h-.09a4.86,4.86,0,0,1-1.7,0A8.78,8.78,0,0,0,98.81,10l-.46,0,0,0-.15,0-.18,0L98,10.11a.52.52,0,0,0-.64.06l-.15-.25-.1.18-.68-.36a.87.87,0,0,0-.72,0,.37.37,0,0,0-.15.25h0a.48.48,0,0,0-.09.38.43.43,0,0,0,.24.3l.23.14,0-.06a.51.51,0,0,1,.22.11,1,1,0,0,0,.29.17l.6.22L97,11.12l.09,0a.39.39,0,0,0,.28,0l2.26,0,0,0,.07-.06h.14l.23,0a2.38,2.38,0,0,0,.72.11.67.67,0,0,0,.67,0c.09,0,.09,0,.16,0l.33.23.06-.28h.3a1.87,1.87,0,0,0,.73,1l.11.08-.91,0,1.72.48.29.07.14.06a4.77,4.77,0,0,0,1.51.37l.32,0v.06l.16.08-.23.08,1,.05h.19l4.26.18h0a8.19,8.19,0,0,1,1.74-.13,12,12,0,0,0,1.46-.07v0l.34,0a17.72,17.72,0,0,1,2.83-.13c.6,0,1.22,0,1.81,0l.57,0h0a1.24,1.24,0,0,0,.25.5l-.07.06.3.21a3.92,3.92,0,0,0,1,.54h-.18a4.32,4.32,0,0,0-1.57.43l-.29.12.2-.42-.83.52a3.17,3.17,0,0,1-.87.28l-.16,0,.07-.22-.56.31v0l-.25.06-1,.29-.57.17,0-.22-.48.25a3.54,3.54,0,0,1-1,.28h0l-.82.15c-.88.16-1.72.36-2.54.55s-1.5.35-2.28.5h0l0,0,0,0h0a2.07,2.07,0,0,0-.81.09,1.55,1.55,0,0,1-.37.08l-.09,0-.09,0a.44.44,0,0,0-.23.16c-.59.1-1.19.19-1.81.26s-1.14.16-1.71.23l.07-.19-.49.13a8.42,8.42,0,0,1-3.39,0l.64-.27-1.12.11,0,0-.21.07-1.1.11.46.6.18-.08a.3.3,0,0,0,.2.08.63.63,0,0,0,.27-.08l.52.16a1.57,1.57,0,0,0,.64,0h0l.37.09a.75.75,0,0,0,.2,0v0h.66a3.79,3.79,0,0,0,1.11-.09,1,1,0,0,0,.41,0,1,1,0,0,1,.26,0l.13.07.13-.06.1,0a.93.93,0,0,0,.22-.09,36.92,36.92,0,0,0,4.58-.54l1-.15.07,0a5.13,5.13,0,0,1,1.55-.32c.22,0,.45,0,.67-.08l-.17.23.9-.34a5.32,5.32,0,0,1,1.15-.3l.37-.18A41.26,41.26,0,0,0,120.14,16l1.15-.32c.58-.15,1.14-.34,1.68-.51l.39-.15.91.22a27.16,27.16,0,0,0,3.48.57c.65.09,1.16.11,1.7.14l.71,0,0,.1.22,0a12,12,0,0,1,2.29.12,17,17,0,0,0,1.9.14l-1.45,1.06,2.37-1.06a2.24,2.24,0,0,1,.38,0,1,1,0,0,0,.56-.07l.17,0,.07,0a4.62,4.62,0,0,1,1.66,0c.23,0,.47,0,.73.06l-.26.16,1.26-.14.59-.05.31.06a10.76,10.76,0,0,0,2.6,0l.34,0-.44.35,1.21-.29a6.93,6.93,0,0,1,1.3-.08h.49l-.16.19.92-.2v.05h.24c.62,0,1.22-.06,1.8-.11l.73-.06-.09.19.56-.13a8.63,8.63,0,0,1,1.65-.13h0l1.16,0c1.52-.05,3-.16,4.43-.28.93-.07,1.87-.15,2.83-.21v0h0l.25,0a3.92,3.92,0,0,0,1.08,0,3.2,3.2,0,0,1,.67,0l.06,0h.06a.45.45,0,0,0,.31-.14c.52,0,1,0,1.58,0l1.2,0h2.72l-.11.19.53,0a15,15,0,0,1,5.11.76l.1,0,.16-.08,0,.05-.94.17,1.27.1,0,0Zm-50.6-3.17-.09.21a.86.86,0,0,1-.28.25,3.67,3.67,0,0,1-.5.17l-.34.1-.12,0,.07-.14-.18.11-.1,0a3.82,3.82,0,0,1-1.36-.72l.26-.07a4.53,4.53,0,0,1,1.6,0l.75.1.24,0Zm-2.93-.2,0,.12-.11-.11Zm6.36-8.39s-.06,0-.1-.08l.12-.07Zm-14.8,3,0,0a1.28,1.28,0,0,1-.25.15l-.19.09-1.15.43c-1.18.4-2.24.74-3.19,1-.71.07-1.43.19-2.12.3s-1.41.22-2.11.29a15,15,0,0,1,2.26-1.14,10.36,10.36,0,0,1,2.69-.77,6.68,6.68,0,0,0,1.68-.27,4.54,4.54,0,0,1,2.09-.2l.08,0ZM99.84,10.85a.19.19,0,0,1,0-.08h.13Z" transform="translate(-17.74 -1.14)" style="fill:#0f1ed6"/></svg>