<svg xmlns="http://www.w3.org/2000/svg" width="201.771" height="48.673" viewBox="0 0 201.771 48.673"><path d="M94.541 23.269c-2.25-1.029-4.87-1.507-7.243-2.142-.984-.263-2.593.103-1.539-.482.936-.52 1.764-1.11 2.606-1.77.981-.769 3.439-3.07 1.209-3.913-2.661-1.005-7.355 1.369-9.83 2.075-2.405.687-4.827 1.333-7.269 1.878 1.282-.961 3.862-3.475 1.481-3.954-2.319-.467-5.694 2.136-6.917 3.901-.338.489-.451.868-.403 1.165-1.102.512-2.215.997-3.304 1.487-15.695 7.058-32.002 12.992-48.274 18.574-3.307 1.134-6.63 2.299-10.022 3.16-1.475.375-.648 1.931.617 1.609 11.264-2.861 22.256-7.392 33.104-11.496 9.994-3.782 20.621-7.327 30.14-12.408 2.017.034 4.681-.538 4.937-.596 4.6-1.039 9.063-2.59 13.649-3.672.091.007.171.012.246.014-.752.962-1.853 1.673-2.856 2.33-.764.5-1.682.733-2.11 1.583-.095.189-.031.497.117.643.673.662 1.514.828 2.405 1.097 1.449.438 2.927.793 4.389 1.185.428.114 8.018 2.156 3.877 4.386-2.939 1.583-6.515 2.233-9.738 2.957-2.584.579-23.658 4.509-21.56-1.238.413-1.132-1.873-1.446-2.239-.443-3.63 9.942 27.026 2.751 30.368 1.763 3.913-1.157 10.94-4.589 4.159-7.693zM130.955 18.767c.629-.003 1.258 0 1.887.013 2.141.044 1.015.601-.229 1.061.067.02.129.039.202.058.28.072.563.13.845.196 1.796-.914 2.752-1.873-.247-2.125a34.43 34.43 0 0 0-1.959-.1c-.348.3-.542.604-.499.897zM131.138 20.353c-3.179 1.125-6.519 1.851-9.812 2.547-5.481 1.158-12.529 2.983-18.067 1.382-.614-.178-.989.605-.295.807 7.825 2.263 18.535-1.074 26.056-3.178.529-.148 2.044-.658 3.459-1.267-.391-.12-.761-.244-1.089-.377-.095.031-.181.061-.252.086zM129.522 17.861c-2.862.041-5.749.284-8.575.315-2.579.029-5.16-.038-7.722-.351-1.496-.183-3.995-1.116-3.963-2.269a65.458 65.458 0 0 0 8.134-1.286c.452-.101 5.742-1.507 3.858-2.702-1.924-1.222-11.724.656-13.358 3.482a59.692 59.692 0 0 1-8.223-.293c-.615-.064-1.021.731-.295.807 2.729.285 5.517.3 8.298.118-.032.258-.001.521.121.79 1.155 2.546 6.829 2.374 9.003 2.482 4.219.211 8.437-.085 12.654-.167-.107-.287-.1-.595.068-.926zm-18.891-3.707c1.821-.896 3.91-1.306 5.894-1.675.783-.146 5.493-.905 2.906.28-2.852 1.307-6.365 1.962-9.922 2.209.215-.267.564-.539 1.122-.814z"/><path d="M196.607 22.635c-6.24-2.281-13.097-2.025-19.634-1.81-10.041.329-20.033.957-30.087.634-4.405-.142-8.915-.364-13.228-1.364-.281-.065-.564-.124-.845-.196-.073-.019-.135-.039-.202-.058-1.117-.315-1.601-.685-1.657-1.074-.043-.293.151-.597.498-.897 1.203-1.041 4.2-2.03 5.163-2.336 8.703-2.763 17.975-3.158 26.629-6.083 1.106-.374 5.374-1.852 3.704-3.782-2.149-2.482-8.783-1.67-11.494-1.608-6.599.151-13.826.96-19.533 4.547-1.271.799-4.029 2.902-3.319 4.785.268.711 1.604.439 1.318-.316-1.205-3.196 8.372-5.989 9.869-6.392 6.254-1.683 14.361-2.349 20.789-.853 3.469.808-4.047 3.21-4.815 3.425-4.324 1.209-8.794 1.853-13.2 2.68-4.853.911-12.213 1.666-16.232 4.99-.398.33-.66.641-.809.935-.169.331-.176.639-.067.927.212.568.902 1.059 1.935 1.479.328.133.698.258 1.089.377 5.759 1.771 17.581 2.094 18.204 2.107 8.771.191 17.532-.402 26.291-.736 6.415-.245 13.154-.468 19.271 1.768.786.286 1.186-.848.362-1.149z"/></svg>