<svg xmlns="http://www.w3.org/2000/svg" width="201.771" height="48.673" viewBox="0 0 201.771 48.673"><path fill="#202020" d="M60.454 29.224l.013.256.054-.327zm-.049 1.499c.019-.047.05-.024.07-.071-.055.009-.17-.949-.145-.958-.279.38.172.778.075 1.029zm.253.84c-.168-.082-.141-.658-.263-.559-.021.393.203.502.263.559z"/><path fill="none" d="M86.515 31.537l-.09.032"/><path fill="#202020" d="M96.12 24.809c-.549-.469-1.161-.76-1.77-1.028-1.225-.517-2.478-.891-3.722-1.27l-4.132-1.191-.996-.298-.386-.124-.143-.057c-.044-.022-.09-.041-.121-.077-.038-.046.03-.091.066-.113l.363-.196c1.219-.655 2.408-1.509 3.376-2.563.121-.133.244-.262.358-.405a5.03 5.03 0 0 0 .377-.494c.273-.396.548-.943.276-1.353-.282-.387-.915-.371-1.365-.297-.415.061-.737.15-1.097.251.001-.032-.049-.04.096-.083-1.627.418-3.097.744-4.581 1.232l-.004-.031c-3.643 1.33-7.734 2.171-11.311 3.206-.554.108-1.12.204-1.695.256-.198.012-.406.022-.611.025 1.032-.503 2.007-1.156 2.958-1.761.013.029-.128.199.054.118.375-.336.76-.62 1.035-.859.073-.071.117-.106.2-.204.082-.096.158-.191.223-.284.12-.184.196-.363.164-.491.05-.051.174-.104.142.017.223-.441.347-.763.161-1.129-.303-.31-.682-.23-1.146-.121-1.083.377-1.565.729-2.202 1.101a17 17 0 0 0-1.76 1.253 8.024 8.024 0 0 0-.807.754c-.131.151-.239.266-.373.482-.128.214-.237.471-.227.721.022.22.143.391.309.512-.376.171-.753.339-1.129.507-1.727.76-3.473 1.469-5.209 2.278-3.669 1.433-7.331 3.478-11.096 4.775-2.397.625-5.163 2.422-7.437 2.953-4.602 1.259-8.796 3.172-13.152 5.081-4.168 1.348-8.136 3.241-12.258 4.301-1.827.868-4.088 1.113-6.19 1.866l.1.049c-.833.028-1.602.861-2.185.682l.076-.042c-.457-.041-.818.692-1.128.566l-.04.104c-.485.176-.087-.077-.477.006-.14.052-.009.169-.323.208-.165-.327-1.191.429-1.334.039.27-.071-.463-.04.12-.281-.183.005-1 .242-.886.39-.027.194-.316.432.226.439l.07-.156c.204.084.146.03.233.11.671-.157.812.002 1.308-.061-.006-.003-.012-.004-.006-.013.28-.248.755-.285 1.016-.344l.124.039c.2.101.659-.519.537-.203 1.316-.473 2.835-.967 4.313-1.46.175-.166 1.132-.371.749-.447.44.086 1.557-.23 1.96-.38-.009.024-.019.053-.084.066.883.002.849-.572 1.703-.494.034-.275 1.368-.392 1.69-.813.109.021.156.057.137.11l3.952-1.285c.885-.547 2.354-.739 3.073-1.321.704-.187 1.849-.469 2.758-.932l-.08.068c1.067-.407 2.399-.918 3.068-1.366.417.152.86-.071 1.354-.158.667-.394 2.124-.892 3.169-1.417.213.061.877-.393 1.002-.232 2.916-1.499 6.717-2.822 10.059-3.834.37-.265.755-.653 1.12-.941.048 0 .055.03-.035.066.578-.268 1.201-.309 1.776-.579.007.032.007.032-.077.099.521-.301 1.201-.314 1.798-.715l.056.033.388-.233c.014.062.034.159-.196.229 5.083-1.997 10.169-4.439 15.255-6.815l-.16.143.785-.486c.029.005.057.017.085.021.38.055.668.025.99.004a18.487 18.487 0 0 0 1.86-.275c1.227-.251 2.452-.528 3.597-.945l.004.066c2.986-.97 6.239-1.673 9.348-2.608 1.305-.334 2.159-.667 3.483-.932l.047.074c.272-.09.551-.151.818-.184.245-.006.616-.053.736.221.057.283-.162.527-.318.741-.175.213-.391.43-.607.636-.872.833-1.853 1.512-2.778 2.264l.081-.18c-.109.171-.426.336-.686.481-.253.141-.51.299-.306.354.011-.009-.448.15-.454.162-.108.129-.265.229-.223.413.112.165.32.202.465.27l.99.371c.733.273 1.512.563 2.501.698l-.144.034c.522.084 1.127.199 1.487.362-.062-.006-.039.021-.165.006 1.517.698 3.374.862 4.983 1.537l-.23.046c.413.084.966.315 1.482.656.517.328.991.818 1.025 1.335 0 0-.058-.058-.062-.057.007-.001.021.119.031.249-.01.128-.024.265-.031.263l-.119-.032c-.255.593-.813 1.054-1.336 1.475-.53.421-1.154.727-1.795 1.001l.025-.13c-1.13.677-2.604.938-3.9 1.399l.079-.064c-3.375.915-6.495 1.778-9.913 2.451.051-.021.064-.056.117-.078-.159.066-.331.167-.519.188-.053-.017.043-.06.101-.08-.752-.058-2.116.448-2.592.368-.202.048-.283.135-.16.179-2.7.407-5.605.721-8.413.824-.135-.026-.158-.077-.12-.14a12.423 12.423 0 0 1-3.688-.16 7.892 7.892 0 0 1-1.843-.6c-.584-.299-1.194-.709-1.541-1.374-.125-.067.076.316-.139.089.208.472.588.754.936.953.359.189.702.327 1.032.533l-.121.031c.509.255.172-.133.681.149.197.121-.082.077.017.11 1.13.306 2.302.51 3.363.396.25.186 1.195.065 1.602.222.289-.06.577-.048.685-.156 3.882.038 7.775-.637 11.649-1.307 1.753-.638 3.986-.709 6.089-1.336.018.007.018.02.006.031a24.074 24.074 0 0 1 2.499-.734l.655-.329c1.246-.299 2.487-.651 3.704-1.131.603-.248 1.221-.509 1.782-.915.54-.39 1.088-.814 1.465-1.479.186-.324.285-.783.156-1.194-.122-.405-.386-.709-.655-.941zm-28.005-4.83c-.191-.198-.071-.493.062-.696.147-.23.351-.46.562-.667a11.8 11.8 0 0 1 1.4-1.146 16.304 16.304 0 0 1 1.548-.975c.558-.294.996-.535 1.563-.645.128-.019.312-.022.366.12.035.136-.029.269-.085.39a4.462 4.462 0 0 1-.465.687c-.349.453-.806.88-1.307 1.2l-.026-.059c-1.074.753-2.233 1.345-3.409 1.892-.072-.03-.149-.054-.209-.101z"/><path fill="#202020" d="M47.618 29.709l-.006.002c-.012.009-.024.021-.036.029l.042-.031zm31.455 3.014l.016.001c.04-.018.02-.013-.016-.001zM7.118 44.127c.02.02.122-.015.177-.026a6.66 6.66 0 0 0-.177.026zm95.811-18.762l.159-.068-.196.02zm.271.023c.178.215.469-.238.578-.098-.02-.024-.001-.052-.021-.076l-.557.174zm.713-.036c.173.111.274-.008.324-.045-.083.091-.335-.112-.324.045z"/><path fill="none" d="M119.675 24.064a.225.225 0 0 0-.053.019"/><path fill="#202020" d="M129.9 18.054c-.682.011-1.334-.017-1.998.052l.002-.031c-2.255.333-4.704.118-6.879.417-2.651-.018-5.655-.008-8.443-.36l.017-.062c-1.11-.116-2.207-.408-3.145-.951-.448-.276-.906-.635-1.064-1.069a.672.672 0 0 1-.027-.277c.726-.035 1.484-.04 2.084-.094.572-.279 1.458-.066 1.932-.434.431.006 1.137.034 1.708-.181l-.051.045c.663-.12 1.493-.29 1.909-.565.253.246.528.125.835.156.415-.229 1.318-.4 1.954-.722.143.094.534-.225.631-.06l.722-.405c.362-.206.724-.415.954-.652.247-.235.426-.46.447-.759-.019-.363-.3-.501-.578-.619-.298-.117-.708-.168-1.137-.186l-.941-.025-1.622-.001c-.247.146-.506.41-.742.584-.029-.013-.031-.044.025-.053-.362.098-.743-.025-1.104.084-.004-.032-.004-.032.05-.073-.327.153-.747-.003-1.121.239l-.034-.044-.241.132c-.009-.063-.021-.159.121-.173-1.582.361-3.164.883-4.652 1.741-.369.223-.733.465-1.066.788-.217.215-.448.498-.566.848a11.39 11.39 0 0 1-.866-.032c-1.167.295-2.485-.162-3.784-.103l.047.078c-.464-.237-1.053.318-1.336-.046l.05-.015c-.239-.187-.595.398-.737.175l-.045.085c-.304.008-.03-.102-.26-.15-.088.005-.044.16-.224.095-.011-.363-.746.018-.726-.394.161.018-.236-.185.134-.228-.099-.053-.59-.088-.569.087-.066.175-.283.309.005.486l.078-.125c.087.144.071.075.096.178.401.064.437.259.722.362-.002-.004-.005-.007 0-.014.212-.14.479-.029.636.003l.059.078c.088.161.478-.276.341-.017l2.689-.029c.128-.101.703-.003.498-.194.234.216.92.252 1.173.23-.009.021-.019.045-.059.039.506.268.569-.292 1.049.034.049-.216.646-.039.96-.188-.002.04-.015.074-.013.116.051.604.456.977.796 1.247a5.27 5.27 0 0 0 1.143.653l-.141.005s.166.046.331.078l.329.062c-.014.029-.049.036-.083.038.77.379 1.658.378 2.438.528-.009.03-.139.071-.033.124.61-.082.919.356 1.255.03.025.019.035.103-.027.125l4.963.213c1.37-.307 2.896-.027 4.31-.317l-.005.065c1.828-.267 3.778-.093 5.677-.194.377.002.695-.018 1.011-.041.009-.06.02-.12.023-.18.03-.08.074-.158.115-.237zm-17.878-4.818c1.097-.454 2.243-.823 3.402-.963 1.451.021 3.239-.928 4.653-.554.301.086.559.134.691.354.053.142-.108.28-.218.362a2.014 2.014 0 0 1-.354.216c-.114.062-.227.107-.335.154l-.391.158-.949.343a77.987 77.987 0 0 1-3.94 1.236c-2.038.204-4.05.693-6.057.784.11-.175.257-.343.427-.494.905-.627 1.981-1.131 3.071-1.596zm18.837 5.175l.021.081c.664-.162 1.369-.097 2.07-.005l.94.132c.241.057.56.005.928.211 0 0-.262-.017-.265-.009.269.005.176.23.057.311-.107.098-.165.163.056.179l-.158.052-.161.042c-.081.154-.297.317-.499.447a4.147 4.147 0 0 1-.645.219c-.168.051-.342.099-.52.153.255.074.508.153.766.216l.555-.22c.241-.146.511-.335.766-.503.242-.176.578-.336.646-.55.11-.177.125-.504-.038-.69-.14-.177-.337-.309-.628-.401a4.595 4.595 0 0 0-.953-.159c-.319-.024-.485-.024-.701-.025-.828.001-1.65.073-2.49.19.004-.031-.023-.049.063-.062-.104.008-.203.009-.306.015-.1.132-.181.271-.221.412.224-.016.455-.03.717-.036zm-13.653-7.14h.003c.008-.005.017-.014.024-.018l-.027.018zm14.573 9.336l.048-.091c-.271.153-.598.315-.833.331.031-.021.009-.036.072-.077-1.004.025-1.931.645-2.923.894l.077-.155c-.435.275-1.339.387-1.951.602l.023-.069-.297.162-.037-.116c-.817.197-1.562.488-2.362.675l.018-.118c-.702.362-1.586.356-2.361.594l.046-.05c-2.016.374-3.844.885-5.848 1.272.029-.017.035-.051.065-.068-.091.053-.188.14-.299.148-.032-.021.022-.057.057-.073-.45-.107-1.236.291-1.522.185-.117.035-.16.117-.086.167-.789.128-1.607.252-2.434.353-.824.121-1.655.229-2.472.331-.08-.021-.096-.07-.077-.135-1.382.382-2.883.234-4.327.021-.068.073.137.097-.02.164.463.141.883-.112 1.297.067l-.061.07c.31.075.074-.182.391-.061.123.063-.035.096.023.102.653-.029 1.34.049 1.948-.142.156.156.694-.03.941.114.164-.074.333-.066.391-.178 2.268-.055 4.54-.482 6.814-.834 1.017-.467 2.346-.332 3.588-.661.012.009.012.021.005.032a6.652 6.652 0 0 1 1.479-.372l.386-.216c2.987-.341 5.922-1.24 8.866-2.034.837-.224 1.638-.499 2.431-.759l.171-.067c-.265-.07-.528-.145-.788-.227a3.66 3.66 0 0 0-.439.219z"/><path fill="none" d="M115.274 24.468l.009.003"/><path fill="#202020" d="M100.462 15.799c.006.025.07.026.104.033a.637.637 0 0 1-.104-.033zm96.156 6.73l-.211.039.264.019zm-1.157-.103c.027.029.001.054.028.083l.762-.059c-.243-.258-.634.147-.79-.024zm-.642-.12c.12-.074.466.19.456.028-.236-.152-.383-.055-.456-.028z"/><path fill="none" d="M171.967 21.233l.081-.013"/><path fill="#202020" d="M165.232 7.171s.001 0 0 0a.333.333 0 0 0 .026-.032l-.026.032z"/><path fill="#202020" d="M192.843 21.633l.095-.056c-.436-.149-.129.166-.57-.035-.17-.104.063-.084-.02-.109-.958-.113-1.947-.356-2.867-.265-.205-.183-1.025-.097-1.365-.285-.253.043-.5.004-.602.104-3.343-.304-6.756-.084-10.159.012-1.583.366-3.503.076-5.389.265-.013-.01-.012-.022.001-.032-.612.106-1.507.185-2.244.179l-.615.164c-4.432-.072-8.939.293-13.43.208-5.103-.06-9.548-.372-14.521-.327.009-.03-.03-.051.099-.054-1.433-.048-2.719-.287-4.059-.393l.008-.031a20.464 20.464 0 0 1-3.755-.538c-.258-.063-.511-.142-.766-.216-.164-.048-.331-.087-.493-.14-.775-.27-1.643-.61-2.007-1.197a.54.54 0 0 1-.042-.441c.04-.141.121-.28.221-.412.019-.025.033-.051.053-.075.112-.155.255-.291.408-.42.141-.14.303-.258.464-.376 1.68-.988 3.692-1.64 5.715-2.261 2.032-.611 4.12-1.143 6.146-1.628l.004.063c3.231-.853 6.463-1.059 9.723-1.752 3.397-.507 6.832-1.734 10.143-2.676 1.04-.233 2.233-.73 3.128-1.579.216-.209.402-.472.421-.741.031-.286-.196-.49-.409-.64-.457-.304-.982-.479-1.442-.682-1.956-.724-4.038-.856-6.065-.852-2.038.017-4.065.242-6.107.517-3.813.081-7.491 1.064-11.07 1.844-1.565.745-3.553 1.007-5.188 2.145l.102.027c-.738.188-1.065 1.163-1.604 1.194l.045-.061c-.413.123-.316.896-.611.914l.03.103c-.253.355-.113-.026-.348.223-.065.112.1.132-.09.32-.164-.075-.301.168-.403.418-.101.252-.157.502-.356.48.063-.276-.253.409-.185-.243a1.188 1.188 0 0 0-.1.628c.022.289.225.541.268.439.202-.021.444.113.398-.295a.477.477 0 0 1-.146-.032c.109-.148.053-.106.151-.156.065-.485.325-.498.547-.777-.006.001-.01.003-.013-.005-.013-.302.277-.567.436-.71l.111-.019c.188.004.199-.671.276-.367.736-.868 1.857-1.647 3.015-2.266.109-.186.907-.445.561-.494.393.043 1.312-.292 1.65-.431-.005.024-.011.052-.066.066.758.015.69-.556 1.438-.435.02-.278 1.171-.289 1.454-.669.095.032.135.073.117.123 1.157-.321 2.478-.5 3.479-.671.821-.37 2.092-.241 2.8-.62.626-.019 1.639.009 2.495-.179l-.081.042c.976-.096 2.201-.177 2.869-.395.303.277.725.205 1.152.281.651-.153 1.975-.133 2.976-.235.15.136.826-.037.871.157 1.397-.137 2.98-.099 4.511.226.734.163 1.562.424 1.98.815.166.19.103.223-.014.354-.162.172-.46.357-.764.497-.221.275-.504.657-.793.934-.042 0-.051-.03.024-.063-.479.26-1.027.261-1.52.484-.007-.032-.007-.032.064-.091-.455.246-1.039.202-1.574.512l-.047-.04-.348.179c-.009-.063-.021-.16.18-.199a137.765 137.765 0 0 1-14.057 3.205l.164-.093-.907.282c-.001-.033.04-.056.082-.079-1.201.125-2.39.551-3.539.777-.001-.032.159-.129-.009-.129-.811.351-1.412.09-1.755.537-.043-.007-.089-.08-.009-.128-2.327.671-4.726 1.299-7.053 2.077-.9.514-1.898.914-2.853 1.472-.472.284-.944.604-1.302 1.076l-.084.171c-.041.079-.085.158-.118.239-.004.06-.015.12-.023.18a.639.639 0 0 0 .006.292c.069.316.279.545.501.699l-.053.041c.586.433 1.251.649 1.917.859l.089.026c.26.082.523.156.788.227.385.102.772.197 1.164.284 1.382.308 2.792.559 4.197.685 1.162.157 1.958.145 3.131.23l.023.083c1.992-.149 4.143.523 6.223.251l-.146.105c.325-.16 1.247.105 1.133-.192l.362.102c1.409-.36 2.55.215 4.271-.011l-.113.068c.458-.049.99-.101 1.329-.038-.053.01-.028.031-.137.05 1.433.263 3.025-.037 4.534-.072l-.169.134c.727-.171 2.069-.053 3.027-.155l-.057.063.482-.103.017.121c1.249-.037 2.42-.176 3.637-.245l-.059.114c1.124-.248 2.411-.099 3.605-.242l-.079.043c3.042-.095 5.835-.418 8.852-.597-.047.014-.062.047-.11.062.145-.043.304-.12.468-.117.043.023-.044.054-.097.066.642.165 1.871-.153 2.272-.021.179-.022.257-.101.156-.157 1.182-.055 2.408-.04 3.641-.073 1.232.034 2.474-.015 3.688.048.114.035.131.087.094.147 2.093-.167 4.259.348 6.309.934.101-.049-.187-.149.038-.161-.644-.277-1.276-.102-1.852-.388z"/><path fill="#202020" d="M178.497 21.307l-.014-.003c-.036.011-.018.009.014.003zm-44.428-9.306l-.089.103c.024.003.063-.068.089-.103z"/></svg>